HIERARCHY
ROOT Hips
{
	OFFSET 0.000000 0.000000 0.000000
	CHANNELS 6 Xposition Yposition Zposition Zrotation Yrotation Xrotation 
	JOINT LowerBack
	{
		OFFSET 0.000000 0.000000 0.000000
		CHANNELS 3 Zrotation Yrotation Xrotation
		JOINT Spine
		{
			OFFSET 0.028270 2.035590 -0.193380
			CHANNELS 3 Zrotation Yrotation Xrotation
			JOINT Spine1
			{
				OFFSET 0.056720 2.048850 -0.042750
				CHANNELS 3 Zrotation Yrotation Xrotation
				JOINT Neck
				{
					OFFSET 0.000000 0.000000 0.000000
					CHANNELS 3 Zrotation Yrotation Xrotation
					JOINT Neck1
					{
						OFFSET -0.054170 1.746240 0.172020
						CHANNELS 3 Zrotation Yrotation Xrotation
						JOINT Head
						{
							OFFSET 0.104070 1.761360 -0.123970
							CHANNELS 3 Zrotation Yrotation Xrotation
							End Site
							{
								OFFSET 0.000000 0.000000 0.000000
							}
						}
					}
				}
				JOINT LeftShoulder
				{
					OFFSET 0.000000 0.000000 0.000000
					CHANNELS 3 Zrotation Yrotation Xrotation
					JOINT LeftArm
					{
						OFFSET 3.362410 1.200890 -0.311210
						CHANNELS 3 Zrotation Yrotation Xrotation
						JOINT LeftForeArm
						{
							OFFSET 4.983000 -0.000000 -0.000000
							CHANNELS 3 Zrotation Yrotation Xrotation
							JOINT LeftHand
							{
								OFFSET 3.483560 -0.000000 -0.000000
								CHANNELS 3 Zrotation Yrotation Xrotation
								JOINT LeftFingerBase
								{
									OFFSET 0.000000 0.000000 0.000000
									CHANNELS 3 Zrotation Yrotation Xrotation
									JOINT LeftHandIndex1
									{
										OFFSET 0.715260 -0.000000 -0.000000
										CHANNELS 3 Zrotation Yrotation Xrotation
										End Site
										{
											OFFSET 0.000000 0.000000 0.000000
										}
									}
								}
								JOINT LThumb
								{
									OFFSET 0.000000 0.000000 0.000000
									CHANNELS 3 Zrotation Yrotation Xrotation
									End Site
									{
										OFFSET 0.000000 0.000000 0.000000
									}
								}
							}
						}
					}
				}
				JOINT RightShoulder
				{
					OFFSET 0.000000 0.000000 0.000000
					CHANNELS 3 Zrotation Yrotation Xrotation
					JOINT RightArm
					{
						OFFSET -3.136600 1.374050 -0.404650
						CHANNELS 3 Zrotation Yrotation Xrotation
						JOINT RightForeArm
						{
							OFFSET -5.241900 -0.000000 -0.000000
							CHANNELS 3 Zrotation Yrotation Xrotation
							JOINT RightHand
							{
								OFFSET -3.444170 -0.000000 -0.000000
								CHANNELS 3 Zrotation Yrotation Xrotation
								JOINT RightFingerBase
								{
									OFFSET 0.000000 0.000000 0.000000
									CHANNELS 3 Zrotation Yrotation Xrotation
									JOINT RightHandIndex1
									{
										OFFSET -0.622530 -0.000000 -0.000000
										CHANNELS 3 Zrotation Yrotation Xrotation
										End Site
										{
											OFFSET 0.000000 0.000000 0.000000
										}
									}
								}
								JOINT RThumb
								{
									OFFSET 0.000000 0.000000 0.000000
									CHANNELS 3 Zrotation Yrotation Xrotation
									End Site
									{
										OFFSET 0.000000 0.000000 0.000000
									}
								}
							}
						}
					}
				}
			}
		}
	}
}
}
MOTION
Frames: 15
Frame Time: 0.008333
3.437825 16.437588 6.876701 4.473850 28.120411 21.418800 9.714287 -2.678961 9.067132 1.425653 -2.746097 0.248330 -4.875393 -2.866808 3.517169 9.027014 -0.688488 3.170128 -3.720889 -0.330424 2.380036 0.000000 0.000000 0.000000 -1.088481 -2.678263 1.229721 -17.428289 -26.671810 -14.087992 -1.158481 -35.592657 -0.073726 16.037227 -0.585037 -0.122519 -0.194904 0.276181 0.000000 0.000000 0.000000 0.000000 0.000000 0.000000 0.000000 15.864928 -5.918548 0.324213 30.192582 14.263548 -30.769100 2.437256 19.808790 0.002503 -6.336868 7.597124 -0.434731 0.110900 -0.114222 -0.000000 0.000000 0.000000 0.000000 0.000000 0.000000 0.000000 
3.456630 16.449468 7.004018 4.618847 28.160380 21.439438 9.673622 -2.679612 9.184376 1.410149 -2.740945 0.284439 -4.882627 -2.859880 3.518134 9.661118 -0.538786 3.430112 -3.699224 -0.330259 2.441457 0.000000 0.000000 0.000000 -1.017772 -2.929571 1.143992 -17.993076 -26.793671 -12.582681 -1.126686 -36.658514 -0.073099 16.031570 -0.533562 -0.114699 -0.195902 0.273532 0.000000 0.000000 0.000000 0.000000 0.000000 0.000000 0.000000 16.216962 -5.891541 0.292140 30.676141 14.747776 -32.222426 2.358196 19.557915 0.000674 -7.073918 7.564514 -0.482344 0.108025 -0.113500 -0.000000 0.000000 0.000000 0.000000 0.000000 0.000000 0.000000 
3.473831 16.465918 7.131938 4.826262 28.190214 21.550845 9.586475 -2.668832 9.232840 1.384161 -2.727795 0.300334 -4.894861 -2.843998 3.511059 10.298176 -0.423259 3.661492 -3.674510 -0.330000 2.497416 0.000000 0.000000 0.000000 -1.003157 -3.187073 1.072111 -18.575371 -26.893974 -10.886942 -1.105562 -37.882079 -0.071281 15.834610 -0.558011 -0.116271 -0.195762 0.270687 -0.000000 0.000000 0.000000 0.000000 0.000000 0.000000 0.000000 16.560841 -5.868777 0.265994 31.271801 15.219409 -33.429773 2.279203 19.412435 -0.001152 -7.862528 7.599302 -0.537659 0.104591 -0.112585 -0.000000 0.000000 0.000000 0.000000 0.000000 0.000000 0.000000 
3.489821 16.486659 7.260023 5.079406 28.191841 21.743057 9.463742 -2.644137 9.217297 1.350056 -2.704135 0.293336 -4.911985 -2.817006 3.484798 10.919243 -0.292794 3.876679 -3.644429 -0.329662 2.551511 0.000000 0.000000 0.000000 -1.019153 -3.467387 1.016906 -19.231266 -26.924946 -9.047404 -1.096292 -39.267396 -0.068287 15.449319 -0.685873 -0.130635 -0.194300 0.267872 -0.000000 0.000000 0.000000 0.000000 0.000000 0.000000 0.000000 16.865861 -5.792265 0.248237 32.010328 15.595504 -34.384920 2.200460 19.417338 -0.002958 -8.671335 7.676033 -0.597971 0.100560 -0.111423 -0.000000 0.000000 0.000000 0.000000 0.000000 0.000000 0.000000 
3.505125 16.511660 7.388023 5.354960 28.148993 22.006386 9.322012 -2.604400 9.143232 1.310890 -2.668821 0.267335 -4.937110 -2.777825 3.448132 11.507240 -0.168661 4.065177 -3.613955 -0.329374 2.600515 0.000000 0.000000 0.000000 -1.079499 -3.735050 0.976470 -19.939159 -26.917513 -7.099822 -1.096601 -40.785527 -0.064314 14.896928 -0.909891 -0.155191 -0.191498 0.265229 -0.000000 0.000000 0.000000 0.000000 0.000000 0.000000 0.000000 17.144302 -5.688898 0.237621 32.852493 15.952642 -35.039504 2.128294 19.501756 -0.004616 -9.478916 7.820272 -0.665081 0.096160 -0.109952 -0.000000 0.000000 0.000000 0.000000 0.000000 0.000000 0.000000 
3.519925 16.540764 7.515541 5.634081 28.048106 22.322718 9.170923 -2.549078 9.021979 1.268689 -2.620682 0.224081 -4.970284 -2.725504 3.398325 12.048290 -0.026381 4.234088 -3.582894 -0.329158 2.646171 0.000000 0.000000 0.000000 -1.168537 -3.987700 0.950682 -20.728406 -26.857478 -5.084960 -1.105858 -42.417705 -0.059531 14.199174 -1.231511 -0.188143 -0.187434 0.262907 -0.000000 0.000000 0.000000 0.000000 0.000000 0.000000 0.000000 17.382421 -5.532412 0.234525 33.804689 16.270367 -35.400896 2.064416 19.657776 -0.006083 -10.253799 8.013693 -0.736288 0.091564 -0.108193 -0.000000 0.000000 0.000000 0.000000 0.000000 0.000000 0.000000 
3.534403 16.573725 7.642331 5.899454 27.879145 22.673073 9.017475 -2.478392 8.866966 1.224819 -2.559101 0.167720 -5.011826 -2.659512 3.338336 12.533883 0.140171 4.385036 -3.552777 -0.329052 2.688497 0.000000 0.000000 0.000000 -1.277137 -4.207057 0.937613 -21.610630 -26.760457 -3.034432 -1.122825 -44.126063 -0.054155 13.382777 -1.640205 -0.225591 -0.182309 0.261016 0.000000 0.000000 0.000000 0.000000 0.000000 0.000000 0.000000 17.581507 -5.318798 0.237834 34.856204 16.564873 -35.472560 2.011188 19.854885 -0.007310 -10.969229 8.241339 -0.809192 0.087031 -0.106201 -0.000000 0.000000 0.000000 0.000000 0.000000 0.000000 0.000000 
3.548548 16.610280 7.768125 6.136869 27.636138 23.035525 8.866771 -2.393418 8.692838 1.180569 -2.484209 0.102111 -5.060538 -2.580103 3.268922 12.956903 0.341950 4.523794 -3.523672 -0.329056 2.728660 0.000000 0.000000 0.000000 -1.393399 -4.388705 0.935675 -22.601176 -26.623915 -0.974912 -1.146262 -45.878237 -0.048391 12.474330 -2.115580 -0.262639 -0.176355 0.259532 -0.000000 0.000000 0.000000 0.000000 0.000000 0.000000 0.000000 17.735784 -5.038532 0.246766 36.005714 16.842109 -35.285324 1.969801 20.064976 -0.008272 -11.592182 8.486145 -0.879696 0.082788 -0.104138 -0.000000 0.000000 0.000000 0.000000 0.000000 0.000000 0.000000 
3.562255 16.650093 7.892894 6.338446 27.316934 23.390548 8.717986 -2.295546 8.513205 1.135994 -2.396394 0.030160 -5.114609 -2.487790 3.188483 13.316118 0.586957 4.658923 -3.495953 -0.329224 2.768644 0.000000 0.000000 0.000000 -1.498410 -4.549726 0.943088 -23.723273 -26.414455 1.066286 -1.174808 -47.654673 -0.042398 11.495685 -2.629143 -0.294284 -0.169736 0.258234 -0.000000 0.000000 0.000000 0.000000 0.000000 0.000000 0.000000 17.845239 -4.686496 0.261195 37.249667 17.105602 -34.871989 1.940999 20.262216 -0.008956 -12.091784 8.728946 -0.943197 0.079016 -0.102168 -0.000000 0.000000 0.000000 0.000000 0.000000 0.000000 0.000000 
3.575371 16.692758 8.016719 6.500554 26.922024 23.721900 8.568185 -2.186870 8.341273 1.090723 -2.296767 -0.043062 -5.172383 -2.383651 3.102506 13.613759 0.867678 4.789559 -3.470665 -0.329543 2.807679 0.000000 0.000000 0.000000 -1.587757 -4.669943 0.956613 -24.972125 -26.164002 3.082264 -1.207223 -49.399746 -0.036364 10.472064 -3.152983 -0.316731 -0.162747 0.257023 -0.000000 0.000000 0.000000 0.000000 0.000000 0.000000 0.000000 17.919529 -4.274151 0.278618 38.575195 17.385182 -34.265632 1.925391 20.414170 -0.009365 -12.442957 8.952061 -0.994795 0.075892 -0.100472 -0.000000 0.000000 0.000000 0.000000 0.000000 0.000000 0.000000 
3.587789 16.737828 8.139817 6.625426 26.454612 24.018811 8.410351 -2.069567 8.186251 1.043344 -2.186709 -0.113867 -5.232739 -2.269011 3.015356 13.857808 1.179068 4.915476 -3.448905 -0.330020 2.845266 0.000000 0.000000 0.000000 -1.659381 -4.734521 0.974295 -26.336128 -25.898163 5.074270 -1.242784 -51.063337 -0.030433 9.427080 -3.656600 -0.327279 -0.155677 0.255694 0.000000 0.000000 0.000000 0.000000 0.000000 0.000000 0.000000 17.973700 -3.810519 0.296394 39.966706 17.695601 -33.486291 1.923176 20.506196 -0.009512 -12.627117 9.131011 -1.029191 0.073506 -0.099125 -0.000000 0.000000 0.000000 0.000000 0.000000 0.000000 0.000000 
3.599312 16.784834 8.262460 6.718948 25.919253 24.275364 8.237267 -1.945629 8.053242 0.992573 -2.067697 -0.180316 -5.294035 -2.145349 2.928858 14.055698 1.517765 5.038289 -3.430863 -0.330655 2.881562 0.000000 0.000000 0.000000 -1.711852 -4.742523 0.994818 -27.804860 -25.620426 7.043894 -1.280873 -52.610204 -0.024727 8.381798 -4.111698 -0.324931 -0.148762 0.253952 -0.000000 0.000000 0.000000 0.000000 0.000000 0.000000 0.000000 18.016784 -3.302025 0.312474 41.416856 18.042712 -32.565668 1.933810 20.530606 -0.009416 -12.627290 9.246629 -1.041985 0.071832 -0.098193 -0.000000 0.000000 0.000000 0.000000 0.000000 0.000000 0.000000 
3.609860 16.833235 8.384886 6.788474 25.321261 24.489895 8.042552 -1.817267 7.942302 0.937890 -1.941767 -0.243528 -5.352382 -2.014923 2.838541 14.209825 1.874888 5.164314 -3.416247 -0.331511 2.918316 0.000000 0.000000 0.000000 -1.727574 -4.738247 1.014841 -29.396795 -25.256160 8.965480 -1.320061 -54.043674 -0.019284 7.343891 -4.495227 -0.309885 -0.141918 0.251347 -0.000000 0.000000 0.000000 0.000000 0.000000 0.000000 0.000000 18.047802 -2.762053 0.327685 42.925710 18.442517 -31.556506 1.957024 20.459242 -0.009088 -12.426486 9.301690 -1.031277 0.070760 -0.097800 -0.000000 0.000000 0.000000 0.000000 0.000000 0.000000 0.000000 
3.619459 16.882599 8.507470 6.843042 24.665718 24.668385 7.819635 -1.685936 7.850313 0.877555 -1.810444 -0.301874 -5.408991 -1.879100 2.751875 14.332538 2.243199 5.285942 -3.406039 -0.332543 2.953204 0.000000 0.000000 0.000000 -1.728931 -4.679949 1.034877 -31.059099 -24.875671 10.864615 -1.360852 -55.308079 -0.014244 6.341796 -4.789609 -0.284343 -0.135591 0.247770 -0.000000 0.000000 0.000000 0.000000 0.000000 0.000000 0.000000 18.086902 -2.200345 0.337586 44.475731 18.896083 -30.451936 1.991946 20.311294 -0.008550 -12.033042 9.272275 -0.995368 0.070151 -0.097759 -0.000000 0.000000 0.000000 0.000000 0.000000 0.000000 0.000000 
3.628107 16.932480 8.630454 6.890310 23.957859 24.818379 7.565446 -1.552940 7.770633 0.811304 -1.675384 -0.357347 -5.462108 -1.739693 2.666859 14.427467 2.614511 5.404294 -3.400219 -0.333785 2.986654 0.000000 0.000000 0.000000 -1.715169 -4.588520 1.053294 -32.782280 -24.442110 12.728338 -1.402587 -56.402872 -0.009660 5.387846 -4.984910 -0.251203 -0.129831 0.242964 -0.000000 0.000000 0.000000 0.000000 0.000000 0.000000 0.000000 18.136683 -1.628536 0.341921 46.062893 19.407520 -29.272132 2.037790 20.083613 -0.007818 -11.454363 9.159964 -0.936059 0.069801 -0.097990 -0.000000 0.000000 0.000000 0.000000 0.000000 0.000000 0.000000 
